<svg width="22" height="22" viewBox="0 0 22 22" fill="none" xmlns="http://www.w3.org/2000/svg">
<path fill-rule="evenodd" clip-rule="evenodd" d="M11 0C17.0751 0 22 4.92487 22 11C22 17.0751 17.0751 22 11 22C4.92487 22 0 17.0751 0 11C0 4.92487 4.92487 0 11 0ZM11 3.16504C10.5388 3.16504 10.165 3.53884 10.165 4V11.457L6.16113 13.2373C5.73975 13.4246 5.55008 13.9175 5.7373 14.3389C5.92459 14.7602 6.41748 14.9499 6.83887 14.7627L11.3389 12.7627C11.6404 12.6287 11.835 12.33 11.835 12V4C11.835 3.53884 11.4612 3.16504 11 3.16504Z" fill="#007AFF"/>
</svg>
