<svg width="32" height="28" viewBox="0 0 32 28" fill="none" xmlns="http://www.w3.org/2000/svg">
<path fill-rule="evenodd" clip-rule="evenodd" d="M5.31068 22.7396L5.49317 23.8093C5.82133 25.7273 7.49385 27.1429 9.4318 27.1429H21.9972C23.9352 27.1429 25.6077 25.7273 25.9358 23.8093L26.1188 22.7396H5.31068ZM12.6826 3.04392C12.6829 1.54863 13.78 0.263797 15.2516 0.0355192C16.7232 -0.192759 18.1554 0.699723 18.6049 2.12524C19.0545 3.55075 18.395 5.10837 17.0608 5.77236L21.7086 14.9088L25.8968 9.75467C24.8038 8.15477 25.4996 5.89491 27.3011 5.19366C29.1025 4.49241 31.1334 5.69086 31.3999 7.61246C31.6664 9.53407 30.0389 11.2441 28.1152 11.0638L26.5664 20.12H4.86264L3.31339 11.0643C1.38968 11.2446 -0.237789 9.53452 0.028706 7.61291C0.295201 5.6913 2.32603 4.49285 4.12748 5.1941C5.92893 5.89536 6.62473 8.15521 5.53181 9.75511L9.71998 14.9092L14.3673 5.77281C13.3364 5.25954 12.6822 4.1994 12.6826 3.04392Z" fill="#007AFF"/>
</svg>
