<svg width="112" height="112" viewBox="0 0 112 112" fill="none" xmlns="http://www.w3.org/2000/svg">
<rect width="112" height="112" rx="24" fill="url(#paint0_linear_523_15761)"/>
<path d="M44.7654 73.9831C41.9174 75.6273 39.3331 76.1562 37.0124 75.5696C34.6918 74.983 32.7414 73.3213 31.1613 70.5845L29.4047 67.542C27.8246 64.8052 27.3607 62.2852 28.013 59.9822C28.6654 57.6792 30.4155 55.7055 33.2635 54.0612L37.7438 51.4745L49.2457 71.3963L44.7654 73.9831ZM52.1126 69.7689L40.5987 49.8262C42.2786 48.597 44.0906 47.1156 46.0348 45.3818C47.9929 43.64 49.8927 41.7652 51.7343 39.7573C53.5897 37.7414 55.2102 35.7036 56.5958 33.644C56.668 33.7691 56.7362 33.8872 56.8004 33.9983C56.8645 34.1094 56.9327 34.2275 57.0049 34.3526L73.7404 63.3392C73.8045 63.4504 73.8687 63.5615 73.9329 63.6727C73.997 63.7838 74.0572 63.888 74.1133 63.9852C71.6727 64.1533 69.1543 64.5237 66.5582 65.0963C63.9542 65.6551 61.4153 66.3429 58.9417 67.1598C56.4682 67.9766 54.1918 68.8463 52.1126 69.7689ZM84.1341 64.9793C83.3006 65.4605 82.46 65.705 81.6124 65.7128C80.7728 65.7344 79.988 65.53 79.2578 65.0995C78.5415 64.6609 77.9428 64.0249 77.4615 63.1913L58.8853 31.0163C58.404 30.1828 58.1526 29.3462 58.1309 28.5066C58.1152 27.6452 58.3265 26.8563 58.7651 26.14C59.1956 25.4098 59.8276 24.8041 60.6612 24.3229C61.5086 23.8336 62.3561 23.5851 63.2037 23.5774C64.0433 23.5557 64.8252 23.7711 65.5495 24.2235C66.2797 24.654 66.8854 25.2861 67.3666 26.1196L85.9429 58.2946C86.4241 59.1282 86.6686 59.9687 86.6764 60.8163C86.698 61.6559 86.4896 62.4338 86.0511 63.1501C85.6205 63.8803 84.9816 64.49 84.1341 64.9793ZM61.2043 83.3024C59.9957 84.0003 58.8457 84.2382 57.7543 84.0162C56.6768 83.7862 55.5453 83.254 54.3597 82.4196L46.4433 76.7931C46.7767 76.6006 47.1002 76.423 47.4139 76.2605C47.7276 76.0979 47.9747 75.9645 48.1553 75.8602C50.835 74.4057 52.8767 73.3381 54.2804 72.6573C55.698 71.9685 56.8428 71.465 57.7149 71.1467L62.1183 76.0786C62.9582 77.02 63.4488 77.95 63.5902 78.8686C63.7316 79.7872 63.5811 80.6336 63.1389 81.4075C62.7105 82.1735 62.0657 82.8052 61.2043 83.3024Z" fill="white"/>
<defs>
<linearGradient id="paint0_linear_523_15761" x1="56" y1="0" x2="56" y2="112" gradientUnits="userSpaceOnUse">
<stop stop-color="#60BFEF"/>
<stop offset="1" stop-color="#0094FE"/>
</linearGradient>
</defs>
</svg>
