<svg width="22" height="22" viewBox="0 0 22 22" fill="none" xmlns="http://www.w3.org/2000/svg">
<path fill-rule="evenodd" clip-rule="evenodd" d="M0 11C0 4.92487 4.92487 0 11 0C17.0751 0 22 4.92487 22 11C22 17.0751 17.0751 22 11 22C4.92487 22 0 17.0751 0 11ZM11 5.2C11.4418 5.2 11.8 5.55817 11.8 6V10.2H16C16.4418 10.2 16.8 10.5582 16.8 11C16.8 11.4418 16.4418 11.8 16 11.8H11.8V16C11.8 16.4418 11.4418 16.8 11 16.8C10.5582 16.8 10.2 16.4418 10.2 16V11.8H6C5.55817 11.8 5.2 11.4418 5.2 11C5.2 10.5582 5.55817 10.2 6 10.2H10.2V6C10.2 5.55817 10.5582 5.2 11 5.2Z" fill="#007AFF"/>
</svg>
