<svg width="35" height="35" viewBox="0 0 35 35" fill="none" xmlns="http://www.w3.org/2000/svg">
<path d="M17.1346 34.2857C26.5304 34.2857 34.2857 26.5304 34.2857 17.1346C34.2857 7.7553 26.5138 0 17.118 0C7.73873 0 0 7.7553 0 17.1346C0 26.5304 7.7553 34.2857 17.1346 34.2857ZM10.9535 23.6305V16.9357C10.9535 15.7592 11.4341 15.146 12.3952 15.0466V13.1244C12.3952 9.94269 14.3175 7.82158 17.118 7.82158C19.9517 7.82158 21.8573 9.94269 21.8573 13.1244V15.0466C22.8185 15.146 23.299 15.7592 23.299 16.9357V23.6305C23.299 24.9562 22.7025 25.5527 21.4928 25.5527H12.7598C11.5501 25.5527 10.9535 24.9562 10.9535 23.6305ZM14.45 15.0135H19.8025V12.9421C19.8025 11.053 18.7254 9.81012 17.118 9.81012C15.5106 9.81012 14.45 11.0695 14.45 12.9421V15.0135Z" fill="#007AFF"/>
</svg>
