<svg width="32" height="32" viewBox="0 0 32 32" fill="none" xmlns="http://www.w3.org/2000/svg">
<path d="M11.5407 14.0318C11.3463 14.4052 11.0624 14.5919 10.689 14.5919C10.3156 14.5919 10.0291 14.4052 9.82963 14.0318C9.63524 13.6533 9.53805 13.1008 9.53805 12.3744C9.53805 11.6634 9.63524 11.1212 9.82963 10.7478C10.0291 10.3743 10.3156 10.1876 10.689 10.1876C11.0624 10.1876 11.3463 10.3743 11.5407 10.7478C11.7402 11.1212 11.8399 11.6634 11.8399 12.3744C11.8399 13.1008 11.7402 13.6533 11.5407 14.0318Z" fill="#007AFF"/>
<path d="M21.5693 21.0219C21.3749 21.4004 21.091 21.5897 20.7176 21.5897C20.3442 21.5897 20.0577 21.4004 19.8582 21.0219C19.6638 20.6434 19.5667 20.0935 19.5667 19.3722C19.5667 18.6561 19.6638 18.1138 19.8582 17.7455C20.0577 17.3721 20.3442 17.1854 20.7176 17.1854C21.091 17.1854 21.3749 17.3721 21.5693 17.7455C21.7688 18.1138 21.8685 18.6561 21.8685 19.3722C21.8685 20.0935 21.7688 20.6434 21.5693 21.0219Z" fill="#007AFF"/>
<path fill-rule="evenodd" clip-rule="evenodd" d="M15.7143 0C7.03553 0 0 7.03553 0 15.7143C0 24.393 7.03553 31.4286 15.7143 31.4286C24.393 31.4286 31.4286 24.393 31.4286 15.7143C31.4286 7.03553 24.393 0 15.7143 0ZM8.41779 15.1444C8.98048 15.8145 9.73755 16.1496 10.689 16.1496C11.6456 16.1496 12.4026 15.8145 12.9602 15.1444C13.5178 14.4692 13.7966 13.5459 13.7966 12.3744C13.7966 11.1928 13.5152 10.2746 12.9525 9.61984C12.395 8.96508 11.6405 8.6377 10.689 8.6377C9.74266 8.6377 8.98815 8.96763 8.42547 9.62751C7.86278 10.2823 7.58144 11.1979 7.58144 12.3744C7.58144 13.551 7.86022 14.4743 8.41779 15.1444ZM18.4464 22.1345C19.0091 22.8046 19.7661 23.1396 20.7176 23.1396C21.6742 23.1396 22.4312 22.802 22.9888 22.1268C23.5464 21.4567 23.8252 20.5385 23.8252 19.3722C23.8252 18.1906 23.5438 17.2724 22.9811 16.6176C22.4236 15.9577 21.6691 15.6278 20.7176 15.6278C19.7713 15.6278 19.0168 15.9577 18.4541 16.6176C17.8914 17.2724 17.61 18.1906 17.61 19.3722C17.61 20.5487 17.8888 21.4695 18.4464 22.1345ZM10.4818 22.5028C10.533 22.7534 10.6737 22.9478 10.9038 23.0859C11.1187 23.2087 11.354 23.2471 11.6098 23.201C11.8706 23.155 12.0778 23.0169 12.2313 22.7867L20.7636 10.0188C20.9324 9.76307 20.9862 9.5073 20.9248 9.25153C20.8685 8.99065 20.7253 8.79371 20.4951 8.66071C20.2854 8.54306 20.0577 8.51237 19.8122 8.56864C19.5718 8.62491 19.3672 8.77325 19.1983 9.01367L10.666 21.7432C10.4921 21.9989 10.4307 22.2521 10.4818 22.5028Z" fill="#007AFF"/>
</svg>
